<?xml version="1.0" encoding="UTF-8"?>
<svg id="Layer_1" data-name="Layer 1" xmlns="http://www.w3.org/2000/svg" fill="none" heigth="800" width="180" viewBox="0 0 118.67 31.24">
  <path d="m.5,1.95c.85-.23,1.95-.43,3.36-.43,1.73,0,3,.66,3.8,1.84.74,1.05,1.19,2.66,1.19,4.64s-.36,3.59-1.05,4.74c-.93,1.61-2.43,2.43-4.15,2.43-.52,0-1.01-.03-1.41-.2v8.88H.5V1.95Zm1.75,10.69c.38.16.87.23,1.45.23,2.11,0,3.4-1.68,3.4-4.74s-1.27-4.34-3.2-4.34c-.76,0-1.35.1-1.65.23v8.62Z" style="fill: #1367aa; stroke: #2b388f; stroke-miterlimit: 10;"/>
  <path d="m10.82,12.9c0-1.88-.02-3.49-.08-4.97h1.55l.06,3.13h.08c.44-2.14,1.51-3.49,2.7-3.49.2,0,.34.03.5.1v2.73c-.18-.07-.36-.1-.6-.1-1.25,0-2.13,1.55-2.37,3.72-.04.39-.08.86-.08,1.35v8.49h-1.75v-10.96Z" style="fill: #1367aa; stroke: #2b388f; stroke-miterlimit: 10;"/>
  <path d="m26.02,15.77c0,5.89-2.5,8.46-4.85,8.46-2.64,0-4.67-3.16-4.67-8.19,0-5.33,2.13-8.46,4.83-8.46s4.69,3.32,4.69,8.19Zm-7.73.16c0,3.49,1.23,6.12,2.96,6.12s2.96-2.6,2.96-6.19c0-2.7-.83-6.12-2.92-6.12s-3,3.16-3,6.19Z" style="fill: #1367aa; stroke: #2b388f; stroke-miterlimit: 10;"/>
  <path d="m25.87,28.47c.81-.1,1.51-.46,1.93-1.22.48-.92.66-2.17.66-5.99V7.94h1.77v14.44c0,3.09-.3,5.1-1.17,6.55-.78,1.28-2.07,1.81-3.02,1.81l-.18-2.27ZM30.44,3.46c.02.95-.4,1.78-1.11,1.78-.66,0-1.09-.82-1.09-1.78,0-1.02.46-1.81,1.13-1.81s1.07.79,1.07,1.81Z" style="fill: #1367aa; stroke: #2b388f; stroke-miterlimit: 10;"/>
  <path d="m34.12,16.42c.04,3.92,1.57,5.53,3.34,5.53,1.27,0,2.03-.36,2.7-.82l.3,2.07c-.62.46-1.69.99-3.24.99-3,0-4.79-3.22-4.79-8.03s1.73-8.59,4.57-8.59c3.18,0,4.02,4.57,4.02,7.5,0,.59-.04,1.05-.06,1.35h-6.84Zm5.19-2.07c.02-1.84-.46-4.71-2.45-4.71-1.79,0-2.58,2.7-2.72,4.71h5.17Z" style="fill: #1367aa; stroke: #2b388f; stroke-miterlimit: 10;"/>
  <path d="m50.16,23.27c-.46.39-1.49.92-2.8.92-2.94,0-4.85-3.26-4.85-8.13s2.05-8.46,5.23-8.46c1.05,0,1.97.43,2.46.82l-.4,2.24c-.42-.39-1.09-.76-2.05-.76-2.23,0-3.44,2.7-3.44,6.02,0,3.68,1.45,5.96,3.38,5.96,1.01,0,1.67-.43,2.17-.79l.3,2.17Z" style="fill: #1367aa; stroke: #2b388f; stroke-miterlimit: 10;"/>
  <path d="m54.63,3.36v4.57h2.54v2.2h-2.54v8.59c0,1.97.34,3.09,1.33,3.09.46,0,.8-.1,1.03-.2l.08,2.17c-.34.23-.89.39-1.57.39-.83,0-1.49-.43-1.91-1.22-.5-.86-.68-2.27-.68-4.15v-8.69h-1.51v-2.2h1.51v-3.82l1.73-.76Z" style="fill: #1367aa; stroke: #2b388f; stroke-miterlimit: 10;"/>
  <path d="m65.23,1.68v13.13c0,4.97,1.35,7.07,3.16,7.07,2.01,0,3.3-2.17,3.3-7.07V1.68h1.77v12.93c0,6.81-2.19,9.61-5.13,9.61-2.78,0-4.87-2.6-4.87-9.48V1.68h1.77Z" style="fill: #1367aa; stroke: #2b388f; stroke-miterlimit: 10;"/>
  <path d="m85.98,26.1c-.64.53-1.93,1.05-3.58,1.05-3.82,0-6.7-3.95-6.7-11.22s2.88-11.65,7.08-11.65c1.69,0,2.76.59,3.22.99l-.42,2.34c-.66-.53-1.61-.92-2.74-.92-3.18,0-5.29,3.32-5.29,9.15,0,5.43,1.91,8.92,5.21,8.92,1.07,0,2.15-.36,2.86-.92l.36,2.27Z" style="fill: #1367aa; stroke: #2b388f; stroke-miterlimit: 10;"/>
  <path d="m96.7,15.77c0,5.89-2.5,8.46-4.85,8.46-2.64,0-4.67-3.16-4.67-8.19,0-5.33,2.13-8.46,4.83-8.46s4.69,3.32,4.69,8.19Zm-7.73.16c0,3.49,1.23,6.12,2.96,6.12s2.96-2.6,2.96-6.19c0-2.7-.83-6.12-2.92-6.12s-3,3.16-3,6.19Z" style="fill: #1367aa; stroke: #2b388f; stroke-miterlimit: 10;"/>
  <path d="m107.35.5v19.25c0,1.41.02,3.03.08,4.11h-1.59l-.08-2.76h-.04c-.54,1.78-1.73,3.13-3.32,3.13-2.35,0-4.17-3.26-4.17-8.09-.02-5.3,1.99-8.55,4.37-8.55,1.49,0,2.5,1.15,2.94,2.43h.04V.5h1.77Zm-1.77,13.92c0-.36-.02-.85-.08-1.22-.26-1.84-1.23-3.36-2.56-3.36-1.83,0-2.92,2.63-2.92,6.15,0,3.22.97,5.89,2.88,5.89,1.19,0,2.27-1.28,2.6-3.45.06-.39.08-.79.08-1.25v-2.76Z" style="fill: #1367aa; stroke: #2b388f; stroke-miterlimit: 10;"/>
  <path d="m111.27,16.42c.04,3.92,1.57,5.53,3.34,5.53,1.27,0,2.03-.36,2.7-.82l.3,2.07c-.62.46-1.69.99-3.24.99-3,0-4.79-3.22-4.79-8.03s1.73-8.59,4.57-8.59c3.18,0,4.02,4.57,4.02,7.5,0,.59-.04,1.05-.06,1.35h-6.84Zm5.19-2.07c.02-1.84-.46-4.71-2.46-4.71-1.79,0-2.58,2.7-2.72,4.71h5.17Z" style="fill: #1367aa; stroke: #2b388f; stroke-miterlimit: 10;"/>
</svg>