<?xml version="1.0" standalone="no"?>
<!DOCTYPE svg PUBLIC "-//W3C//DTD SVG 20010904//EN"
 "http://www.w3.org/TR/2001/REC-SVG-20010904/DTD/svg10.dtd">
<svg version="1.0" xmlns="http://www.w3.org/2000/svg"
 width="300.000000pt" height="65.000000pt" viewBox="0 0 300.000000 100.000000"
 preserveAspectRatio="xMidYMid meet">
<metadata>
Created by potrace 1.10, written by Peter Selinger 2001-2011
</metadata>
<g transform="translate(0.000000,100.000000) scale(0.100000,-0.100000)"
fill="#000000" stroke="none">
<path d="M825 740 c-24 -27 -13 -68 22 -76 34 -9 57 6 61 42 6 49 -49 72 -83
34z"/>
<path d="M2658 703 l-38 -4 0 -50 0 -50 -29 22 c-54 40 -118 6 -128 -69 -7
-50 16 -95 56 -112 27 -11 35 -10 66 9 28 16 35 17 35 6 0 -11 12 -15 43 -15
l42 0 2 135 c1 74 -1 134 -5 133 -4 -1 -24 -3 -44 -5z m-43 -168 c0 -24 -5
-31 -24 -33 -32 -5 -54 23 -40 50 7 13 19 18 37 16 23 -2 27 -8 27 -33z"/>
<path d="M104 691 c-2 -2 -4 -60 -4 -128 l0 -123 48 0 48 0 -4 40 -4 40 46 0
c52 0 100 20 110 45 12 31 6 73 -13 96 -17 22 -29 24 -121 29 -56 3 -104 3
-106 1z m151 -101 c0 -21 -5 -26 -32 -28 -31 -3 -33 -1 -33 28 0 29 2 31 33
28 27 -2 32 -7 32 -28z"/>
<path d="M1422 667 c-30 -31 -32 -37 -32 -110 0 -97 15 -117 88 -117 47 0 49
1 49 30 0 24 -5 30 -23 30 -22 0 -34 17 -34 51 0 14 7 19 28 19 25 0 29 4 29
30 0 26 -4 30 -29 30 -27 0 -29 3 -26 32 4 43 -12 44 -50 5z"/>
<path d="M1670 610 c0 -137 26 -173 125 -173 97 0 125 40 125 179 l0 84 -45 0
-44 0 -3 -92 -3 -93 -30 0 -30 0 -3 93 -3 92 -44 0 -45 0 0 -90z"/>
<path d="M2003 680 c-59 -35 -79 -109 -48 -174 24 -49 68 -70 147 -69 37 1 72
4 77 8 6 3 11 24 11 46 0 36 -2 39 -19 29 -11 -5 -40 -10 -65 -10 -35 0 -48 5
-60 22 -46 66 29 122 118 88 25 -9 26 -8 26 29 0 45 -11 51 -100 51 -37 0 -65
-6 -87 -20z"/>
<path d="M393 633 c-22 -4 -23 -9 -23 -99 l0 -94 45 0 44 0 3 58 3 57 41 3
c41 3 42 4 46 43 2 28 0 39 -10 39 -19 0 -55 -20 -69 -39 -11 -14 -12 -12 -13
12 0 28 -10 31 -67 20z"/>
<path d="M635 631 c-58 -24 -82 -115 -41 -160 64 -70 206 -28 206 61 0 80 -85
131 -165 99z m79 -76 c10 -26 -6 -56 -28 -53 -24 3 -36 56 -15 68 15 10 36 3
43 -15z"/>
<path d="M848 633 l-28 -4 0 -103 c0 -114 -8 -132 -54 -120 -24 6 -26 4 -26
-30 0 -34 2 -36 33 -37 61 -2 82 3 104 24 20 20 22 34 25 150 3 138 7 129 -54
120z"/>
<path d="M983 626 c-17 -8 -36 -23 -42 -35 -18 -33 -13 -95 9 -119 27 -29 88
-44 136 -34 34 7 39 12 42 39 l3 32 -48 -6 c-36 -4 -52 -1 -61 10 -10 12 -5
15 37 21 26 3 56 3 66 -1 16 -6 17 -2 11 28 -3 19 -15 42 -25 52 -24 24 -88
31 -128 13z m75 -58 c3 -17 -35 -32 -44 -17 -8 13 16 41 30 36 6 -2 12 -11 14
-19z"/>
<path d="M1235 632 c-50 -17 -75 -50 -75 -101 0 -64 77 -108 165 -92 37 6 40
9 40 38 l0 33 -51 -6 c-45 -6 -53 -4 -63 13 -7 15 -7 25 3 38 11 15 22 17 62
12 l50 -6 -4 34 c-3 27 -9 34 -34 39 -36 7 -66 6 -93 -2z"/>
<path d="M2265 627 c-34 -16 -55 -53 -55 -96 0 -64 78 -111 151 -91 47 13 69
39 76 88 4 33 1 44 -24 72 -34 38 -98 49 -148 27z m85 -88 c0 -36 -27 -50 -46
-25 -7 10 -10 25 -7 34 16 41 53 34 53 -9z"/>
<path d="M2778 625 c-15 -8 -32 -24 -38 -35 -17 -32 -12 -94 10 -118 27 -29
88 -44 136 -34 36 7 39 11 42 46 3 35 2 37 -17 27 -27 -15 -78 -14 -87 1 -22
34 -2 90 26 73 15 -9 12 -35 -5 -35 -8 0 -15 -4 -15 -9 0 -6 25 -9 56 -8 l55
2 -6 30 c-3 16 -14 38 -24 49 -25 25 -98 31 -133 11z"/>
</g>
</svg>